<?xml version="1.0" encoding="UTF-8" standalone="no"?>
<!-- Created with Inkscape (http://www.inkscape.org/) -->

<svg
   width="98.007416mm"
   height="112.58948mm"
   viewBox="0 0 98.007416 112.58948"
   version="1.1"
   id="svg1"
   xml:space="preserve"
   xmlns:inkscape="http://www.inkscape.org/namespaces/inkscape"
   xmlns:sodipodi="http://sodipodi.sourceforge.net/DTD/sodipodi-0.dtd"
   xmlns="http://www.w3.org/2000/svg"
   xmlns:svg="http://www.w3.org/2000/svg"><sodipodi:namedview
     id="namedview1"
     pagecolor="#ffffff"
     bordercolor="#666666"
     borderopacity="1.0"
     inkscape:showpageshadow="2"
     inkscape:pageopacity="0.0"
     inkscape:pagecheckerboard="0"
     inkscape:deskcolor="#d1d1d1"
     inkscape:document-units="mm" /><defs
     id="defs1" /><g
     inkscape:label="Layer 1"
     inkscape:groupmode="layer"
     id="layer1"
     transform="translate(-53.757562,-92.488462)"><path
       style="fill:#000000"
       d="m 54.580977,204.87757 c -0.589797,-1.0343 -1.047429,-9.99359 -0.706962,-13.84055 0.160205,-1.81017 0.395681,-6.80357 0.523279,-11.09643 0.350191,-11.78166 0.254768,-11.53141 7.880052,-20.66566 0.723414,-0.86657 4.309909,-3.6932 5.262236,-4.14733 l 0.867203,-0.41354 -0.159647,-1.88863 c -0.130737,-1.54661 -0.06498,-2.10135 0.363133,-3.0633 0.917158,-2.06081 3.73478,-4.24905 5.953948,-4.62397 0.833838,-0.14088 1.106433,-0.35077 1.527513,-1.17616 0.731227,-1.43332 1.792634,-1.76141 3.399246,-1.05073 0.667727,0.29537 1.401358,0.70655 1.630292,0.91373 0.362775,0.32831 0.584925,0.29408 1.729458,-0.26642 0.722269,-0.35371 1.459068,-0.64683 1.637332,-0.65138 0.178265,-0.005 1.004281,-0.72265 1.835592,-1.59577 1.314268,-1.38038 1.638854,-1.5875 2.487757,-1.5875 1.113749,0 1.303608,-0.18613 1.935482,-1.89739 0.547373,-1.48242 0.939099,-1.84365 2.228314,-2.05487 0.900538,-0.14753 0.971253,-0.22293 0.889419,-0.94828 -0.120698,-1.06982 -0.447881,-1.34735 -0.97132,-0.82391 -1.096787,1.09678 -2.092176,0.0801 -3.535277,-3.61087 -1.817124,-4.6476 -1.953989,-6.52 -0.56219,-7.69112 l 0.727216,-0.61192 -0.352244,-1.8303 c -0.193735,-1.00667 -0.714925,-2.89443 -1.158201,-4.19504 -0.916749,-2.68981 -0.989763,-3.75086 -0.369809,-5.37419 0.358484,-0.93867 0.382041,-1.32262 0.132291,-2.1562 -0.428261,-1.42941 -0.377296,-3.62847 0.107785,-4.6507 0.226401,-0.4771 0.881245,-1.24485 1.455208,-1.7061 0.938026,-0.75381 1.043569,-0.95984 1.043569,-2.03714 0,-1.64242 1.054748,-2.745305 2.625481,-2.745305 0.911008,0 1.078686,-0.0843 1.078686,-0.542306 0,-0.908251 0.755968,-2.070401 1.646253,-2.530785 0.67582,-0.34948 1.275894,-0.402982 3.017948,-0.269077 2.05502,0.157961 2.21756,0.130822 2.96048,-0.494306 1.03791,-0.873342 1.74065,-0.835072 2.42948,0.132307 0.7273,1.021397 1.10272,1.000105 1.94989,-0.110591 1.02534,-1.344287 1.88279,-1.42069 3.90638,-0.348077 0.9264,0.491041 1.95082,0.962194 2.27649,1.047007 0.32573,0.08483 0.72052,0.493061 0.87752,0.907412 0.30751,0.811588 1.25689,1.943832 1.62989,1.943832 0.12605,0 0.56422,-0.247705 0.97371,-0.550456 1.11327,-0.823074 2.15541,-0.606887 2.5347,0.52581 0.1683,0.502622 0.55492,0.99502 0.87392,1.113025 0.31465,0.116396 0.64809,0.51444 0.74098,0.884542 0.13848,0.551741 0.32702,0.672913 1.04704,0.672913 1.08661,0 1.9749,1.008985 1.9749,2.243215 0,0.98063 0.81294,3.4863 1.44314,4.4481 0.2904,0.44321 0.46237,1.41312 0.52633,2.96858 0.0885,2.15307 0.0451,2.38896 -0.63824,3.46648 -0.40542,0.63929 -0.81144,1.74572 -0.90816,2.47483 -0.0962,0.72525 -0.52841,2.50853 -0.96045,3.96284 -0.43205,1.45431 -0.78554,2.71552 -0.78554,2.8027 0,0.0872 0.23204,0.0849 0.51564,-0.005 0.73693,-0.23389 1.48606,0.62571 1.69747,1.9478 0.21961,1.37334 -0.71984,7.93121 -1.29571,9.04483 -0.26982,0.52177 -0.68096,0.84881 -1.19681,0.95198 -0.80315,0.16063 -0.84773,0.24621 -1.16623,2.23883 -0.0843,0.52722 -0.44782,1.53925 -0.80789,2.24896 -0.36007,0.70971 -0.65517,1.36642 -0.65578,1.45935 -6e-4,0.0929 0.63383,0.82452 1.40986,1.62575 1.78012,1.83794 3.17474,3.93062 3.88555,5.83043 0.6034,1.61273 1.09896,2.01292 4.49307,3.6284 2.28178,1.08606 2.99235,1.81301 4.38801,4.48917 0.65069,1.24767 1.81973,2.93712 2.62577,3.79463 1.41121,1.50134 1.76897,2.39803 1.18841,2.9786 -0.17626,0.17625 0.36022,0.78485 1.60819,1.82439 3.15093,2.6247 4.18108,3.97441 6.40303,8.38939 2.19149,4.35443 2.33552,4.86819 2.80361,10.00048 0.19924,2.18458 0.47762,3.37168 1.30295,5.55625 1.16927,3.09499 1.51816,4.90478 1.90335,9.87337 0.14459,1.8651 0.44224,4.16444 0.66145,5.10965 0.21921,0.94521 0.39856,1.77071 0.39856,1.83444 0,0.0637 -8.171,0.11588 -18.15777,0.11588 h -18.15777 l 0.18066,-1.12448 c 0.0994,-0.61847 0.35645,-2.55323 0.57131,-4.29948 0.44884,-3.64797 1.02532,-7.14699 2.52828,-15.34583 1.60251,-8.74191 2.26582,-13.11423 2.58897,-17.06563 0.16066,-1.96453 0.35923,-3.8993 0.44128,-4.29948 0.18331,-0.89411 0.10967,-0.89634 -1.43326,-0.0433 l -1.23774,0.68431 0.92604,-0.83277 c 0.50933,-0.45802 2.11667,-1.50319 3.57188,-2.32259 3.02644,-1.70413 5.42396,-3.88506 5.42396,-4.93395 0,-0.36839 -0.472,-1.40006 -1.04888,-2.29261 -0.57689,-0.89256 -1.11252,-1.82331 -1.19029,-2.06835 -0.12559,-0.39571 -1.42531,-1.35377 -1.83655,-1.35377 -0.32383,0 -0.14024,0.98053 0.37155,1.98438 0.70493,1.38267 0.667,2.23659 -0.15303,3.44496 -0.746,1.09931 -3.95456,4.69941 -6.09743,6.84152 -0.74561,0.74535 -1.74341,2.12909 -2.21732,3.07497 -0.4739,0.94589 -1.70932,2.8314 -2.74537,4.19002 -3.59672,4.71657 -3.5721,4.64441 -2.70463,7.92683 0.24213,0.91619 0.37003,1.77939 0.28423,1.91823 -0.0858,0.13883 -0.62524,0.25242 -1.19873,0.25242 h -1.04272 l -0.046,-1.25677 c -0.0253,-0.69122 -0.0647,-1.79255 -0.0876,-2.44739 -0.0229,-0.65485 -0.32267,-1.78594 -0.66626,-2.51354 -1.69884,-3.5976 -6.37765,-11.70859 -6.97704,-12.09512 -0.20288,-0.13084 -0.16527,-0.31651 0.12243,-0.60429 0.37735,-0.37745 0.28793,-0.89125 -0.97854,-5.6227 -1.556763,-5.81601 -2.55492,-8.65885 -4.203756,-11.97268 -0.615447,-1.23693 -1.435584,-3.29076 -1.822525,-4.56407 -0.643062,-2.11612 -0.761146,-2.3151 -1.373878,-2.3151 -1.1548,0 -1.623276,0.46543 -2.329972,2.31483 -0.37691,0.98637 -0.999975,2.25649 -1.384589,2.8225 -0.923494,1.35904 -1.061601,2.86016 -0.481274,5.23105 0.467771,1.91105 0.507862,1.96908 3.273694,4.73871 4.373556,4.37956 9.03614,9.49916 8.6512,9.49916 -0.0773,0 -0.7705,-0.64098 -1.540557,-1.42439 -2.413897,-2.45578 -5.028167,-4.71471 -8.29698,-7.16925 -2.882927,-2.16478 -5.3464,-4.1462 -6.945822,-5.58666 -0.80425,-0.72432 -4.462216,-2.93215 -5.518763,-3.33095 -1.256313,-0.47421 -2.078192,0.18676 -2.612258,2.10082 -0.309635,1.10972 -0.679428,1.74317 -1.370474,2.34762 -0.66781,0.58413 -0.894788,0.96235 -0.77104,1.28484 0.139558,0.36368 0.323466,0.41076 0.900513,0.23051 1.059081,-0.33081 4.354183,-0.17794 6.165198,0.28602 2.106371,0.53963 3.530647,1.29422 5.275565,2.79504 1.798544,1.54695 3.625528,2.70293 6.879167,4.35261 3.64032,1.84574 5.791554,3.05861 5.987598,3.37582 0.217854,0.35249 0.367849,0.42063 -4.054339,-1.84172 -2.062247,-1.05503 -3.878373,-1.91823 -4.035834,-1.91823 -0.352489,0 0.930205,2.5789 2.503561,5.0335 3.298178,5.14549 6.821305,14.07385 9.498285,24.07067 1.25638,4.69177 3.54858,19.27228 3.10027,19.72059 -0.20996,0.20996 -51.590631,0.13516 -51.710633,-0.0753 z m 56.702753,-25.99531 c 0,-0.14552 -0.23812,-0.26459 -0.52916,-0.26459 -0.29104,0 -0.52917,0.11907 -0.52917,0.26459 0,0.14552 0.23813,0.26458 0.52917,0.26458 0.29104,0 0.52916,-0.11906 0.52916,-0.26458 z m -0.43903,-1.81487 c -0.0844,-1.77971 -1.14847,-1.78267 -1.14847,-0.003 0,0.94908 0.0629,1.05219 0.59532,0.97657 0.49283,-0.07 0.58805,-0.23755 0.55315,-0.97337 z m -0.39846,-2.96254 c -0.11191,-0.76474 -0.75001,-1.01433 -0.75001,-0.29336 0,0.29126 0.0754,0.72591 0.16743,0.96587 0.23554,0.61382 0.69346,0.0852 0.58258,-0.67251 z m -0.22138,-1.30772 c 0.83946,-0.44926 4.52927,-6.93684 4.15704,-7.30907 -0.0666,-0.0666 -0.52302,0.11187 -1.0143,0.39656 -1.31183,0.76019 -3.5738,1.35597 -5.1481,1.35597 h -1.38068 l 1.16412,2.37788 c 0.64027,1.30783 1.16413,2.53814 1.16413,2.73402 0,0.69123 0.3344,0.83179 1.05779,0.44464 z m 5.81001,-6.99016 c 0.68331,-1.25168 0.65444,-1.60543 -0.10716,-1.31318 -0.35508,0.13626 -2.43365,3.93613 -3.02219,5.52493 -0.21721,0.58635 2.52425,-3.10334 3.12935,-4.21175 z m -10.06511,0.70999 c -1.56937,-2.87344 -3.41659,-5.71525 -3.59744,-5.53439 -0.0836,0.0836 0.49896,1.15692 1.29458,2.38515 0.79563,1.22823 1.85263,3.01709 2.3489,3.97525 0.49627,0.95815 0.9414,1.62653 0.98918,1.48529 0.0478,-0.14125 -0.41807,-1.18133 -1.03522,-2.3113 z m 5.3387,-0.29787 c 3.50268,-1.20553 5.28995,-2.3599 8.11669,-5.24243 1.49459,-1.5241 2.99908,-3.32782 3.3433,-4.00827 0.83948,-1.65945 1.74445,-4.65345 1.74445,-5.77131 0,-2.38092 -2.16411,-6.66425 -4.5936,-9.0919 -1.561,-1.55983 -1.93186,-1.7148 -2.38491,-0.99657 -0.24033,0.381 -0.0751,0.66988 0.97618,1.7063 1.60042,1.57786 2.91505,3.74038 3.4966,5.75175 0.38127,1.3187 0.40409,1.78515 0.14415,2.94668 -0.16985,0.75899 -0.51166,1.56048 -0.75956,1.78109 -0.51038,0.45419 -5.16281,1.84686 -7.78188,2.32944 -1.3714,0.25269 -2.091,0.25064 -3.41443,-0.01 -2.43226,-0.47852 -3.32573,-1.0357 -5.47146,-3.41205 -2.09078,-2.31551 -5.279353,-5.22518 -5.492475,-5.01206 -0.07338,0.0734 -0.0026,0.47736 0.157282,0.89772 0.330527,0.86901 2.753193,9.80676 3.040033,11.21534 0.10371,0.50932 0.73951,1.7814 1.41288,2.82684 0.67338,1.04543 1.5517,2.50395 1.95184,3.24114 l 0.72753,1.34035 h 1.67845 c 0.9477,0 2.30124,-0.21434 3.10893,-0.49233 z m 13.32719,-11.07846 c 0.65259,-0.96037 0.90305,-2.54206 0.44714,-2.82383 -0.12312,-0.0761 -0.41305,0.54196 -0.64428,1.37345 -0.23122,0.83149 -0.50041,1.72016 -0.59819,1.97482 -0.29658,0.77242 0.0851,0.52072 0.79533,-0.52444 z m -10.77566,-0.13702 c 0.6472,-0.82391 1.17731,-3.06739 1.76614,-7.47448 0.34997,-2.61937 0.604,-4.79576 0.56452,-4.83643 -0.0395,-0.0407 -0.45505,0.2841 -0.92349,0.72168 -0.46843,0.43758 -1.64313,1.18523 -2.61043,1.66143 -1.64888,0.81174 -1.93264,0.86582 -4.54243,0.86582 -2.65999,0 -2.87402,-0.0431 -4.81642,-0.97069 -2.20467,-1.05281 -4.389994,-2.56683 -6.367791,-4.4117 -0.691224,-0.64477 -1.256771,-1.05159 -1.256771,-0.90405 0,0.14754 0.651807,1.62235 1.448461,3.27735 1.382783,2.87265 1.541741,3.08385 3.505731,4.65771 1.1315,0.90673 3.0633,2.73167 4.2929,4.05541 1.2296,1.32375 2.57815,2.58393 2.99678,2.80041 1.56552,0.80956 5.45797,1.17474 5.9428,0.55754 z m 3.58368,-0.73222 c 1.48698,-0.4391 2.99485,-1.01271 3.35082,-1.27469 1.98506,-1.46093 0.94123,-6.0557 -2.14216,-9.42942 -0.73495,-0.80416 -1.48894,-1.4621 -1.67552,-1.4621 -0.23057,0 -0.39947,0.65682 -0.52727,2.05052 -0.32179,3.5091 -1.1356,8.61339 -1.56081,9.78958 -0.22359,0.61846 -0.3485,1.12448 -0.27759,1.12448 0.0709,0 1.34555,-0.35927 2.83253,-0.79837 z m -23.779865,-1.38205 c -0.277216,-0.32611 -1.357491,-1.42744 -2.400611,-2.4474 -1.720562,-1.68236 -1.950681,-2.03443 -2.479468,-3.79345 -0.674042,-2.24221 -0.608062,-3.70225 0.240912,-5.33105 0.309795,-0.59435 0.563264,-1.13651 0.563264,-1.20479 0,-0.0683 -0.3461,-0.12414 -0.769112,-0.12414 -0.599829,0 -1.015213,0.29394 -1.887232,1.33547 -1.059885,1.26592 -2.697938,2.3687 -3.518427,2.3687 -0.20626,0 -0.50266,0.15379 -0.658666,0.34177 -0.217992,0.26267 0.432872,0.93217 2.811873,2.89239 3.131877,2.58056 8.278316,6.55542 8.487619,6.55542 0.06263,0 -0.112937,-0.26682 -0.390152,-0.59292 z m 13.484745,-12.11339 c 0.12958,-0.12171 0.0427,-0.76733 -0.19844,-1.47511 -0.23588,-0.69228 -0.42888,-1.47559 -0.42888,-1.74071 0,-0.3223 -0.19727,-0.48338 -0.59531,-0.48609 -0.69458,-0.005 -1.44937,-0.42071 -1.20562,-0.66446 0.0925,-0.0925 0.40861,-0.0394 0.70255,0.11791 0.68903,0.36876 4.67679,0.37194 5.36378,0.004 0.28954,-0.15496 0.66867,-0.22499 0.8425,-0.15563 0.17384,0.0694 -0.0631,0.27883 -0.52643,0.46547 -0.93561,0.37686 -1.13296,0.84057 -1.13827,2.67457 -0.003,0.92353 0.11662,1.30923 0.45941,1.48532 0.86345,0.44356 2.0154,0.0747 2.91284,-0.9326 0.91578,-1.02792 1.30158,-2.1157 1.43609,-4.04914 0.0739,-1.06224 0.0258,-1.18231 -0.44633,-1.11347 -1.49539,0.21803 -11.80238,0.27458 -10.84791,0.0595 0.58208,-0.13115 2.84427,-0.25941 5.02708,-0.28501 2.18281,-0.0256 4.31662,-0.12177 4.7418,-0.21369 0.7016,-0.15169 0.59694,-0.2238 -1.13255,-0.7803 -1.56205,-0.50263 -2.05969,-0.56231 -2.76036,-0.33107 -0.52901,0.17459 -1.15938,0.19473 -1.65408,0.0529 -0.63383,-0.18178 -1.33164,-0.0384 -3.3705,0.69266 -2.89521,1.03808 -2.84152,0.94997 -2.30439,3.78223 0.4242,2.2368 1.97875,3.56433 3.83425,3.27432 0.58208,-0.091 1.16203,-0.26281 1.28877,-0.38185 z m -6.85881,-5.94753 c 0.4137,-1.08328 0.62696,-1.27313 2.35105,-2.09303 3.37643,-1.60569 5.07146,-2.03337 5.67336,-1.43147 0.23861,0.23861 0.43879,0.19583 0.85774,-0.18331 0.53048,-0.48008 0.58778,-0.48054 1.95609,-0.0154 2.9754,1.01138 4.03034,1.80423 5.33621,4.01049 0.26827,0.45325 0.3212,0.44175 0.86958,-0.18895 0.32116,-0.36937 1.14512,-1.55446 1.83101,-2.63353 l 1.24708,-1.96196 0.10808,-5.68854 c 0.0594,-3.1287 0.11898,-6.64554 0.1323,-7.8152 0.0351,-3.08432 -0.41116,-3.90822 -3.28287,-6.06079 -1.27262,-0.95394 -2.49405,-1.73443 -2.71429,-1.73443 -0.22024,0 -0.74147,0.17786 -1.15829,0.39525 -0.96282,0.50214 -1.97772,0.50393 -3.17044,0.006 -0.89044,-0.37205 -0.98483,-0.35966 -1.77744,0.23335 -2.10192,1.57261 -3.43436,1.83273 -4.87834,0.95233 -1.18633,-0.7233 -1.51703,-0.66905 -2.14834,0.35244 -0.94551,1.52986 -2.361696,1.85225 -4.604788,1.04825 -1.688364,-0.60516 -2.170165,-0.31219 -2.170165,1.31963 0,0.85053 -0.163147,1.37838 -0.562249,1.81913 -1.192305,1.31671 -1.258798,1.69797 -1.190023,6.82336 0.08651,6.44706 0.220704,7.07423 2.014842,9.41664 1.484374,1.93798 4.144065,4.62154 4.580437,4.62154 0.134462,0 0.449216,-0.5361 0.699456,-1.19134 z m 3.86352,-4.74579 c -0.37556,-0.45252 -0.27128,-1.78606 0.15048,-1.92431 0.18641,-0.0611 0.24879,0.15016 0.16843,0.5705 -0.0702,0.36714 -0.0521,0.86432 0.0402,1.10483 0.15541,0.40501 0.20313,0.40534 0.64614,0.004 0.61578,-0.55728 1.47995,-0.54985 2.44637,0.021 0.72927,0.43079 0.80982,0.42947 1.58079,-0.026 0.5889,-0.34786 1.07212,-0.43114 1.75663,-0.30273 l 0.94427,0.17715 -0.1688,-1.14338 c -0.15544,-1.05288 -0.13742,-1.10273 0.22774,-0.62979 0.48229,0.62465 0.51666,1.6264 0.0658,1.91819 -0.1819,0.11773 -0.80698,0.23251 -1.38906,0.25507 -0.58209,0.0225 -1.41552,0.12066 -1.85209,0.218 -0.50781,0.11323 -1.07184,0.0324 -1.56573,-0.22446 -0.67835,-0.35275 -0.88284,-0.35513 -1.68596,-0.0196 -1.10595,0.46209 -0.98264,0.462 -1.36524,0.001 z m 5.22251,-6.05886 c -0.52409,-2.26838 -0.65059,-3.28038 -0.46957,-3.7565 0.13627,-0.35842 0.36723,-0.65168 0.51323,-0.65168 0.1687,0 0.15673,0.23865 -0.0329,0.65475 -0.23898,0.5245 -0.18099,1.09136 0.29155,2.84971 0.32442,1.20723 0.55052,2.60302 0.50243,3.10175 -0.0663,0.6881 -0.26044,0.15801 -0.80478,-2.19803 z m -13.437868,-5.44299 c 0,-0.47463 1.621354,-1.5936 2.587476,-1.78574 0.541419,-0.10767 2.089652,-0.20171 3.440512,-0.20896 2.63613,-0.0142 2.95561,0.1379 2.96379,1.41071 0.004,0.5923 -0.0635,0.61983 -1.12042,0.45834 -3.11049,-0.47524 -4.909014,-0.49447 -6.166712,-0.0659 -1.460149,0.49752 -1.704646,0.525 -1.704646,0.19158 z m 14.470778,-0.38292 c -0.0862,-0.22467 0.0647,-0.6822 0.33532,-1.01673 0.44653,-0.55197 0.74518,-0.61591 3.22788,-0.69112 2.661,-0.0806 2.77018,-0.0609 3.99258,0.72177 1.32651,0.84931 1.70407,1.54662 0.66146,1.22164 -2.24208,-0.69886 -2.9277,-0.76231 -4.65311,-0.43064 -3.24551,0.62388 -3.39641,0.63214 -3.56413,0.19508 z m -17.374418,15.30019 c 0.27195,-0.32768 0.268873,-1.16123 -0.01611,-4.36418 -0.332117,-3.73274 -0.396239,-4.0125 -1.121319,-4.89215 -0.422983,-0.51315 -1.130956,-1.12014 -1.573274,-1.34887 -0.759496,-0.39275 -0.83541,-0.38461 -1.36525,0.14652 -0.91934,0.92158 -0.70202,3.20567 0.64815,6.81226 0.611769,1.63416 1.33875,3.21426 1.615513,3.51133 0.597179,0.641 1.34609,0.69682 1.812286,0.13509 z m -1.886505,-3.11012 c -0.815836,-0.62137 -0.850574,-1.45359 -0.113195,-2.71183 0.682334,-1.16431 0.686268,-1.19939 0.240011,-2.13981 -0.249531,-0.52585 -0.800537,-1.16701 -1.224457,-1.42482 -0.423919,-0.2578 -0.655802,-0.53977 -0.515295,-0.62661 0.421683,-0.26062 1.674705,0.91167 2.179422,2.03899 0.471179,1.05241 0.470601,1.0582 -0.230941,2.31472 l -0.703303,1.25968 0.602497,0.81492 c 0.619047,0.83731 0.5157,1.04633 -0.234739,0.47476 z m -1.929995,-3.21939 c -0.185819,-0.74036 0.04467,-1.9967 0.366322,-1.9967 0.173899,0 0.05332,2.36948 -0.131902,2.59201 -0.03592,0.0432 -0.141411,-0.22473 -0.23442,-0.59531 z m 32.919928,5.92951 c 0.35684,-0.66676 1.03218,-4.72843 1.22992,-7.39704 0.12621,-1.70342 0.0747,-2.07365 -0.36375,-2.61491 -0.4562,-0.56315 -0.57959,-0.59426 -1.15452,-0.29112 -0.89787,0.47341 -1.03193,0.75008 -1.03655,2.13918 -0.003,0.99494 0.14106,1.36938 0.78969,2.04812 0.98087,1.02638 1.00518,1.86645 0.0856,2.95926 -0.51987,0.61783 -0.73959,1.2211 -0.82652,2.26926 -0.10857,1.30931 -0.0726,1.42771 0.43423,1.42771 0.30394,0 0.68278,-0.24321 0.84186,-0.54046 z m -0.43122,-3.58222 c 0.27216,-0.70923 0.17893,-1.57278 -0.22786,-2.1106 -0.35628,-0.47104 -0.38916,-0.38754 -0.39688,1.00776 -0.008,1.46077 0.2873,1.98219 0.62474,1.10284 z"
       id="path1" /></g></svg>
